<svg width="910" height="326" viewBox="0 0 910 326" fill="none" xmlns="http://www.w3.org/2000/svg">
<circle cx="144.501" cy="160.82" r="14.1316" fill="#FFD700"/>
<circle cx="267.804" cy="85.6908" r="13.8089" stroke="#FFD700" stroke-width="10"/>
<circle cx="270.395" cy="229.585" r="13.8089" stroke="#FFD700" stroke-width="10"/>
<circle cx="144.596" cy="306.414" r="13.8089" stroke="#FFD700" stroke-width="10"/>
<circle cx="18.8089" cy="229.585" r="13.8089" stroke="#FFD700" stroke-width="10"/>
<circle cx="18.8089" cy="85.6908" r="13.8089" stroke="#FFD700" stroke-width="10"/>
<circle cx="144.406" cy="18.8089" r="13.8089" stroke="#FFD700" stroke-width="10"/>
<path d="M261.467 190.184V101.712H275.271L274.395 198.941L223.123 225.911L215.56 213.869L261.467 190.184Z" fill="#FFD700"/>
<path d="M177.998 276.417L253.984 231.103L261.055 242.959L177.098 292.006L127.674 261.784L134.143 249.12L177.998 276.417Z" fill="#FFD700"/>
<path d="M59.0902 249.044L136.928 291.098L130.366 303.243L45.2401 256.256L45.8831 198.328L60.0726 197.397L59.0902 249.044Z" fill="#FFD700"/>
<path d="M26.5877 129.009L25.7434 217.477L11.9397 217.345L13.744 120.129L65.2702 93.6498L72.7183 105.763L26.5877 129.009Z" fill="#FFD700"/>
<path d="M110.327 43.1518L34.0743 88.0157L27.0742 76.1179L111.319 27.5684L160.564 58.0822L154.02 70.7074L110.327 43.1518Z" fill="#FFD700"/>
<path d="M227.867 72.7076L149.751 31.1721L156.232 18.9836L241.669 65.4045L241.411 123.336L227.228 124.36L227.867 72.7076Z" fill="#FFD700"/>
<path d="M104.346 87.2349C107.78 85.3597 112.229 85.1918 117.628 86.9607C123.033 88.7316 129.152 92.3778 135.599 97.728C148.483 108.419 162.272 125.573 173.802 146.686C185.331 167.799 192.31 188.673 194.339 205.291C195.355 213.608 195.114 220.727 193.682 226.231C192.252 231.729 189.706 235.381 186.272 237.256C182.838 239.132 178.39 239.299 172.991 237.531C167.586 235.76 161.467 232.114 155.019 226.763C142.135 216.073 128.346 198.919 116.816 177.806C105.286 156.692 98.309 135.819 96.2796 119.2C95.264 110.883 95.5041 103.765 96.9361 98.2604C98.3664 92.7621 100.912 89.1102 104.346 87.2349Z" stroke="#FFD700" stroke-width="5"/>
<path d="M186.112 87.4943C189.528 89.4011 192.041 93.0764 193.42 98.5875C194.801 104.105 194.976 111.226 193.884 119.533C191.702 136.132 184.532 156.94 172.808 177.946C161.085 198.952 147.139 215.979 134.157 226.551C127.661 231.841 121.508 235.431 116.088 237.152C110.673 238.871 106.226 238.662 102.809 236.756C99.3925 234.849 96.8802 231.174 95.5005 225.662C94.1193 220.145 93.9447 213.024 95.0368 204.717C97.2189 188.118 104.388 167.31 116.112 146.304C127.835 125.297 141.782 108.271 154.763 97.6994C161.26 92.4086 167.412 88.819 172.833 87.0979C178.248 85.3788 182.695 85.5875 186.112 87.4943Z" stroke="#FFD700" stroke-width="5"/>
<path d="M229.962 160.752C229.962 164.665 227.977 168.65 223.837 172.54C219.692 176.435 213.559 180.058 205.773 183.152C190.216 189.336 168.551 193.216 144.495 193.216C120.439 193.216 98.7747 189.336 83.2168 183.152C75.4309 180.058 69.298 176.435 65.1533 172.54C61.0133 168.65 59.0284 164.665 59.0283 160.752C59.0283 156.839 61.0132 152.854 65.1533 148.964C69.298 145.069 75.4307 141.446 83.2168 138.352C98.7747 132.168 120.439 128.287 144.495 128.287C168.551 128.287 190.216 132.168 205.773 138.352C213.56 141.446 219.692 145.069 223.837 148.964C227.977 152.854 229.962 156.839 229.962 160.752Z" stroke="#FFD700" stroke-width="5"/>
<path d="M301.444 184.711V125.597H357.572V143.112H325.527V149.182H354.686V166.897H325.527V184.711H301.444Z" fill="#FFD700"/>
<path d="M425.045 125.597H369.315V143.112H386.93V166.897H369.315V184.711H425.045V166.897H407.63V143.112H425.045V125.597Z" fill="#FFD700"/>
<path d="M456.891 125.597H436.888V184.711H456.891V164.011L475.103 184.711H495.703V125.597H475.103V152.069L456.891 125.597Z" fill="#FFD700"/>
<path d="M504.461 168.688V143.41C504.461 143.41 508.779 135.894 512.92 132.364C516.943 128.934 525.26 125.597 525.26 125.597H545.761C545.761 125.597 553.78 128.886 557.803 132.364C561.825 135.842 566.361 143.41 566.361 143.41V168.688C566.361 168.688 561.825 175.909 557.803 179.038C553.78 182.167 545.761 184.711 545.761 184.711H525.26C525.26 184.711 516.981 182.167 512.92 179.038C508.859 175.909 504.461 168.688 504.461 168.688Z" fill="#FFD700"/>
<path d="M578.204 184.711V125.597H622.191C622.191 125.597 630.898 128.687 633.735 132.165C636.572 135.643 636.721 143.41 636.721 143.41C636.721 143.41 636.572 150.814 633.735 153.263C630.898 155.711 622.191 155.95 622.191 155.95C622.191 155.95 629.803 157.449 632.641 158.537C635.478 159.625 636.721 163.016 636.721 163.016V175.654C636.721 175.654 635.478 181.25 632.641 183.019C629.803 184.787 622.191 184.711 622.191 184.711H578.204Z" fill="#FFD700"/>
<path d="M645.876 184.711V125.597H692.451C692.451 125.597 699.056 129.269 701.408 132.165C703.759 135.06 704.493 140.425 704.493 140.425V155.95C704.493 155.95 703.234 158.594 701.408 160.13C699.581 161.665 695.138 163.812 695.138 163.812C695.138 163.812 699.537 165.702 702.005 169.783C704.473 173.864 707.777 184.711 707.777 184.711H683.594C683.594 184.711 683.047 173.864 680.21 169.783C677.373 165.702 669.064 163.812 669.064 163.812V184.711H645.876Z" fill="#FFD700"/>
<path d="M716.335 184.711V125.597H760.72C760.72 125.597 768.049 128.687 770.672 132.165C773.296 135.643 774.155 143.41 774.155 143.41C774.155 143.41 773.676 150.5 770.672 153.263C767.71 155.988 760.72 155.95 760.72 155.95C760.72 155.95 768.049 156.056 770.672 157.144C773.296 158.232 774.155 161.523 774.155 161.523V175.654C774.155 175.654 773.296 179.459 770.672 181.227C768.049 182.996 760.72 184.711 760.72 184.711H716.335Z" fill="#FFD700"/>
<path d="M784.008 143.41V125.597H839.539V143.41H822.024V166.499H839.539V184.711H784.008V166.499H802.419V143.41H784.008Z" fill="#FFD700"/>
<path d="M906.913 145.898H886.91C886.91 145.898 885.841 143.896 883.625 143.41C881.41 142.925 876.361 143.112 875.565 143.41C872.927 144.4 873.362 147.459 875.565 148.983C876.858 149.879 894.893 147.911 901.539 151.272C908.185 154.634 909.998 165.304 909.998 165.304C909.998 165.304 910.197 173.691 906.913 177.247C903.629 180.803 892.781 184.711 892.781 184.711H871.683C871.683 184.711 859.977 180.803 856.557 177.247C853.136 173.691 854.168 166.499 854.168 166.499H871.683C871.683 166.499 878.411 169.186 882.531 169.186C886.65 169.186 892.781 168.429 892.781 165.304C892.781 159.93 873.773 161.821 861.731 158.736C857.55 157.665 854.168 150.675 854.168 150.675V143.41C854.168 143.41 854.828 135.643 858.248 132.165C861.668 128.687 871.683 125.597 871.683 125.597H889.895C889.895 125.597 900.107 129.793 903.43 133.757C906.753 137.721 906.913 145.898 906.913 145.898Z" fill="#FFD700"/>
<path d="M525.06 164.503V145.296C525.06 145.296 526.953 142.919 528.642 142.112C530.926 141.021 535.808 141.116 535.808 141.116C535.808 141.116 540.039 141.412 542.177 142.111C544.314 142.811 546.058 145.296 546.058 145.296V164.503C546.058 164.503 544.314 167.19 542.177 167.986C540.039 168.783 535.808 169.181 535.808 169.181C535.808 169.181 530.893 169.144 528.642 167.986C526.858 167.069 525.06 164.503 525.06 164.503Z" fill="#1F1F1F"/>
<path d="M665 151V138H686.053C686.053 138 688.272 139.378 689.043 140.775C689.814 142.173 690 145.157 690 145.157C690 145.157 689.814 147.814 689.043 148.955C688.272 150.096 686.053 151 686.053 151H665Z" fill="#1F1F1F"/>
<path d="M596.713 146.393V137.536H614.228C614.228 137.536 616.075 138.475 616.716 139.427C617.357 140.379 617.512 142.413 617.512 142.413C617.512 142.413 617.357 144.223 616.716 145C616.075 145.777 614.228 146.393 614.228 146.393H596.713Z" fill="#1F1F1F"/>
<path d="M735.04 146.393V137.536H752.555C752.555 137.536 754.401 138.475 755.043 139.427C755.684 140.379 755.839 142.413 755.839 142.413C755.839 142.413 755.684 144.223 755.043 145C754.401 145.777 752.555 146.393 752.555 146.393H735.04Z" fill="#1F1F1F"/>
<path d="M596.713 172.863V164.006H614.228C614.228 164.006 616.075 164.945 616.716 165.897C617.357 166.849 617.512 168.882 617.512 168.882C617.512 168.882 617.357 170.692 616.716 171.47C616.075 172.247 614.228 172.863 614.228 172.863H596.713Z" fill="#1F1F1F"/>
<path d="M735.04 172.863V164.006H752.555C752.555 164.006 754.401 164.945 755.043 165.897C755.684 166.849 755.839 168.882 755.839 168.882C755.839 168.882 755.684 170.692 755.043 171.47C754.401 172.247 752.555 172.863 752.555 172.863H735.04Z" fill="#1F1F1F"/>
</svg>
