<svg width="171" height="60" viewBox="0 0 171 60" fill="none" xmlns="http://www.w3.org/2000/svg">
<g clip-path="url(#clip0_43_384)">
<path d="M46.2289 0H34.6765L46.2289 41.7836L53.5772 20.9603L46.2289 0Z" fill="white"/>
<path d="M46.2288 0H34.6764L23.124 41.7836H34.6764L46.2288 0Z" fill="#D00000"/>
<path d="M34.6804 41.7836H23.1241L17.3499 20.8937L23.1241 0L28.9022 20.8898V20.8937L34.6804 41.7836Z" fill="white"/>
<path d="M23.1241 0L17.3498 20.8937L11.5717 41.7836H0.0231934L5.79745 20.8937L11.5717 0H23.1241Z" fill="#D00000"/>
<path d="M52.0032 41.7876L59.3515 20.9683H64.5456L71.7432 41.7876H66.9358L65.5357 37.3607H58.1371L56.7487 41.7876H52.0032ZM59.1079 33.8028H64.4954L62.2212 26.4402C62.1284 26.1702 62.0549 25.9314 62.0047 25.724C61.945 25.4658 61.8998 25.2044 61.8693 24.9411H61.7571C61.7107 25.219 61.6643 25.4734 61.6102 25.6966C61.556 25.9197 61.498 26.1506 61.4207 26.3933L59.1079 33.8028Z" fill="white"/>
<path d="M92.5234 41.7876H88.0603L79.6367 28.4795L79.0334 27.4932C78.8923 27.2573 78.7632 27.0143 78.6466 26.7651H78.5886C78.6273 27.1252 78.6544 27.5793 78.6737 28.139C78.693 28.6987 78.7008 29.3485 78.7008 30.0961V41.7837H74.5625V20.9683H79.3196L87.4415 33.885L87.9674 34.7461C88.1415 35.0318 88.2962 35.3058 88.4393 35.568H88.4934C88.4458 35.2098 88.4174 34.8491 88.4083 34.4877C88.389 34.0063 88.3813 33.4153 88.3813 32.7068V20.9644H92.5234V41.7876Z" fill="white"/>
<path d="M97.4624 41.7876V20.9683H104.478C108.052 20.9683 110.732 21.8124 112.519 23.5007C114.306 25.189 115.2 27.728 115.203 31.1177C115.203 34.3586 114.224 36.9471 112.267 38.8833C110.31 40.8195 107.71 41.7876 104.467 41.7876H97.4624ZM101.84 24.6593V38.1005H104.126C106.14 38.1005 107.717 37.4834 108.856 36.2491C109.996 35.0148 110.567 33.3187 110.57 31.1607C110.57 29.1254 110.009 27.5362 108.887 26.3815C107.766 25.2269 106.18 24.6554 104.126 24.6554L101.84 24.6593Z" fill="white"/>
<path d="M115.988 41.7876L123.336 20.9683H128.519L135.72 41.7876H130.92L129.516 37.3607H122.122L120.729 41.7876H115.988ZM123.089 33.8028H128.476L126.202 26.4402C126.109 26.1702 126.04 25.9314 125.985 25.724C125.925 25.4661 125.881 25.2046 125.854 24.9411H125.742C125.695 25.219 125.645 25.4734 125.595 25.6966C125.545 25.9197 125.479 26.1506 125.405 26.3933L123.089 33.8028Z" fill="white"/>
<path d="M150.904 24.6593H145.149V41.7759H140.756V24.6593H135.032V20.9683H150.889L150.904 24.6593Z" fill="white"/>
<path d="M161.064 42.1514C158.195 42.1514 155.853 41.1807 154.041 39.2392C152.228 37.2978 151.326 34.7693 151.334 31.6536C151.334 28.3605 152.253 25.6989 154.091 23.6688C155.929 21.6386 158.369 20.6222 161.409 20.6196C164.276 20.6196 166.596 21.5929 168.37 23.5396C170.144 25.4862 171.028 28.0513 171.023 31.2348C171.023 34.5149 170.107 37.1543 168.273 39.1531C166.44 41.152 164.037 42.1514 161.064 42.1514ZM161.149 38.2372C161.881 38.2687 162.61 38.1245 163.276 37.8163C163.942 37.5081 164.527 37.0448 164.982 36.4641C165.916 35.282 166.382 33.6316 166.382 31.5127C166.382 29.3156 165.927 27.6077 165.017 26.3891C164.589 25.7961 164.025 25.3178 163.373 24.9958C162.722 24.6738 162.002 24.5179 161.277 24.5416C160.531 24.5187 159.79 24.6774 159.117 25.0043C158.444 25.3312 157.859 25.8169 157.409 26.4204C156.445 27.6729 155.964 29.3351 155.967 31.407C155.969 33.4789 156.441 35.1437 157.382 36.4015C157.823 36.9845 158.395 37.4533 159.05 37.769C159.705 38.0848 160.424 38.2385 161.149 38.2176V38.2372Z" fill="white"/>
<path d="M171 45.4121H0V47.4749H171V45.4121Z" fill="#D00000"/>
<path d="M8.14898 59.4011C7.73128 59.6021 7.29286 59.7557 6.84174 59.859C6.39175 59.9559 5.93269 60.0032 5.47263 59.9999C4.90433 60.0329 4.33527 59.9501 3.79916 59.7565C3.26304 59.5629 2.77078 59.2623 2.35151 58.8726C1.59863 58.1211 1.2209 57.0487 1.21832 55.6552C1.19941 55.0554 1.29954 54.4577 1.51277 53.8977C1.72601 53.3377 2.04804 52.8266 2.4598 52.3947C2.88625 51.9618 3.39701 51.6235 3.95963 51.4011C4.52225 51.1787 5.12443 51.0772 5.72789 51.1031C6.14278 51.0992 6.55712 51.1346 6.9655 51.2087C7.34763 51.2837 7.72187 51.3951 8.08323 51.5414L7.5147 53.0601C7.24497 52.9436 6.96358 52.857 6.67544 52.8018C6.3834 52.7469 6.08679 52.7206 5.78977 52.7235C5.44739 52.7181 5.10742 52.7822 4.78991 52.912C4.47239 53.0417 4.18378 53.2345 3.94108 53.479C3.67939 53.7484 3.47559 54.0697 3.34248 54.4226C3.20936 54.7756 3.14981 55.1526 3.16757 55.53C3.12374 56.2841 3.36736 57.0266 3.84826 57.6045C4.08573 57.858 4.37463 58.0564 4.69509 58.1861C5.01556 58.3159 5.35998 58.3738 5.70468 58.356C5.97609 58.3506 6.24599 58.3139 6.50913 58.2464C6.83919 58.1683 7.15866 58.0501 7.46055 57.8941L8.14898 59.4011Z" fill="white"/>
<path d="M16.3597 59.8514H14.2519L13.0916 57.7103C12.9475 57.4215 12.7596 57.1574 12.5347 56.9275C12.3613 56.7565 12.1341 56.6526 11.8927 56.6339H11.3589V59.8553H9.51025V51.2441H12.5037C13.5222 51.2441 14.2867 51.4451 14.7972 51.8469C15.06 52.0669 15.2673 52.3471 15.4018 52.6643C15.5363 52.9815 15.5942 53.3266 15.5707 53.6709C15.5863 54.2081 15.4136 54.7335 15.0834 55.1544C14.7264 55.5861 14.2556 55.9064 13.7259 56.0781V56.1016C13.997 56.1966 14.2367 56.366 14.4182 56.5909C14.6307 56.8293 14.815 57.092 14.9674 57.3737L16.3597 59.8514ZM11.3589 52.6611V55.1896H12.2253C12.4115 55.1965 12.5972 55.1654 12.7713 55.0982C12.9453 55.0309 13.1043 54.9289 13.2386 54.7982C13.3637 54.6739 13.4625 54.5251 13.529 54.3609C13.5955 54.1967 13.6283 54.0206 13.6253 53.8431C13.6373 53.6779 13.6133 53.5121 13.5552 53.3572C13.4971 53.2024 13.4062 53.0623 13.2889 52.9468C12.9973 52.7212 12.6337 52.6124 12.2678 52.6415L11.3589 52.6611Z" fill="white"/>
<path d="M22.54 59.8514H17.4851V51.2402H22.3466V52.7668H19.3377V54.7473H22.1416V56.2777H19.3377V58.3209H22.5439L22.54 59.8514Z" fill="white"/>
<path d="M23.124 59.8514L26.2181 51.2402H28.411L31.4547 59.8514H29.4281L28.8364 58.0195H25.7114L25.139 59.8514H23.124ZM26.1214 56.5517H28.3994L27.4363 53.5104C27.4016 53.4129 27.3719 53.3136 27.3474 53.213C27.3202 53.1049 27.3008 52.995 27.2894 52.8842H27.243C27.243 53.0016 27.2004 53.1034 27.1811 53.1973C27.1617 53.2912 27.1308 53.3852 27.0999 53.483L26.1214 56.5517Z" fill="white"/>
<path d="M37.8712 52.7746H35.4423V59.8514H33.5859V52.7746H31.1687V51.248H37.8712V52.7746Z" fill="white"/>
<path d="M40.9961 59.8514H39.1436V51.2402H40.9961V59.8514Z" fill="white"/>
<path d="M50.6649 59.8514H48.7814L45.2233 54.3481C45.1227 54.1915 45.0376 54.0584 44.968 53.9566C44.9074 53.8592 44.8519 53.7586 44.8017 53.6553H44.7785C44.7785 53.804 44.8056 53.9919 44.8133 54.2228C44.8211 54.4537 44.8133 54.7238 44.8133 55.0369V59.867H43.0652V51.2559H45.0763L48.5068 56.587L48.7312 56.9471C48.8046 57.0645 48.8704 57.178 48.9284 57.2837H48.9516C48.932 57.1357 48.9204 56.9867 48.9168 56.8375C48.9168 56.6378 48.9168 56.3952 48.9168 56.1016V51.248H50.6649V59.8514Z" fill="white"/>
<path d="M59.6879 59.2016C59.2604 59.4629 58.798 59.6607 58.3149 59.7887C57.7581 59.935 57.1846 60.0061 56.6093 60.0001C55.4448 60.0611 54.3007 59.6738 53.407 58.9158C52.6102 58.1956 52.2119 57.1166 52.2119 55.6788C52.1924 55.0782 52.2904 54.4796 52.5001 53.9174C52.7099 53.3552 53.0272 52.8405 53.434 52.4027C54.2462 51.539 55.3665 51.1058 56.7949 51.1032C57.2896 51.0999 57.7832 51.1471 58.2685 51.2441C58.746 51.3447 59.2115 51.4969 59.6569 51.6981L59.0613 53.1503C58.35 52.8236 57.576 52.6605 56.7949 52.6728C56.4395 52.6535 56.0841 52.7093 55.7511 52.8367C55.4182 52.964 55.1151 53.1602 54.8612 53.4125C54.3513 54.0126 54.0944 54.7912 54.1457 55.581C54.1457 56.5478 54.3816 57.2641 54.8457 57.722C55.0908 57.9554 55.3796 58.1367 55.6952 58.255C56.0108 58.3734 56.3466 58.4264 56.6828 58.4109C56.8955 58.4142 57.108 58.3958 57.3171 58.3561C57.4882 58.3233 57.6555 58.2721 57.816 58.2035V56.4695H56.1181V54.9625H59.6879V59.2016Z" fill="white"/>
<path d="M69.6933 52.7746H66.6766V54.9469H69.4535V56.4735H66.6766V59.8514H64.8279V51.2402H69.6933V52.7746Z" fill="white"/>
<path d="M73.0967 59.8514H71.2441V51.2402H73.0967V59.8514Z" fill="white"/>
<path d="M82.7423 59.8514H80.8588L77.3007 54.3481L77.0454 53.9566C76.9848 53.8592 76.9293 53.7586 76.8791 53.6553H76.8559C76.8559 53.804 76.883 53.9919 76.8907 54.2228C76.8984 54.4537 76.8907 54.7238 76.8907 55.0369V59.867H75.1426V51.2559H77.1537L80.5842 56.587L80.8085 56.9471C80.882 57.0645 80.9478 57.178 81.0058 57.2837H81.029C81.0094 57.1357 80.9978 56.9867 80.9942 56.8375C80.9942 56.6378 80.9942 56.3952 80.9942 56.1016V51.248H82.7423V59.8514Z" fill="white"/>
<path d="M83.9258 59.8514L87.0198 51.2402H89.2127L92.2526 59.8514H90.226L89.6343 58.0195H86.5093L85.9214 59.8514H83.9258ZM86.927 56.5517H89.2011L88.242 53.5104C88.2033 53.3969 88.1724 53.2991 88.1491 53.213C88.1254 53.1044 88.1073 52.9947 88.095 52.8842H88.0447C88.0254 53.0016 88.0061 53.1034 87.9828 53.1973C87.9596 53.2912 87.9364 53.3852 87.9055 53.483L86.927 56.5517Z" fill="white"/>
<path d="M101.028 59.8514H99.1408L95.5827 54.3481L95.3274 53.9566C95.2679 53.8593 95.2137 53.7586 95.165 53.6553H95.1418C95.1418 53.804 95.1727 53.9919 95.1805 54.2228C95.1882 54.4537 95.1805 54.7238 95.1805 55.0369V59.867H93.4285V51.2559H95.4396L98.874 56.587L99.0944 56.9471C99.1679 57.0645 99.2337 57.178 99.2917 57.2837H99.3187C99.2954 57.136 99.2825 56.9869 99.2801 56.8375C99.2801 56.6378 99.2801 56.3952 99.2801 56.1016V51.248H101.032L101.028 59.8514Z" fill="white"/>
<path d="M109.502 59.4011C109.086 59.602 108.649 59.7556 108.199 59.859C107.749 59.9559 107.29 60.0032 106.83 59.9999C106.261 60.0329 105.692 59.9501 105.156 59.7565C104.62 59.5629 104.128 59.2623 103.708 58.8726C102.935 58.1211 102.575 57.0487 102.575 55.6552C102.556 55.0554 102.656 54.4577 102.87 53.8977C103.083 53.3377 103.405 52.8266 103.817 52.3947C104.243 51.9618 104.754 51.6235 105.317 51.4011C105.879 51.1787 106.481 51.0772 107.085 51.1031C107.5 51.0992 107.914 51.1346 108.322 51.2087C108.704 51.2842 109.079 51.3956 109.44 51.5414L108.868 53.0601C108.598 52.9426 108.317 52.8559 108.029 52.8018C107.736 52.7467 107.44 52.7205 107.143 52.7235C106.801 52.7182 106.462 52.7823 106.145 52.9121C105.828 53.0419 105.54 53.2346 105.298 53.479C105.036 53.7484 104.833 54.0697 104.699 54.4226C104.566 54.7756 104.507 55.1526 104.525 55.53C104.479 56.2837 104.721 57.0262 105.201 57.6045C105.439 57.8583 105.729 58.0569 106.05 58.1866C106.371 58.3163 106.716 58.3741 107.062 58.356C107.333 58.3504 107.603 58.3136 107.866 58.2464C108.196 58.1683 108.516 58.0501 108.817 57.8941L109.502 59.4011Z" fill="white"/>
<path d="M112.716 59.8514H110.867V51.2402H112.716V59.8514Z" fill="white"/>
<path d="M113.872 59.8514L116.966 51.2402H119.159L122.199 59.8514H120.173L119.581 58.0195H116.456L115.868 59.8514H113.872ZM116.874 56.5517H119.148L118.189 53.5104C118.15 53.3969 118.119 53.2991 118.096 53.213C118.072 53.1044 118.054 52.9947 118.042 52.8842H117.991C117.972 53.0016 117.953 53.1034 117.929 53.1973C117.906 53.2912 117.883 53.3852 117.852 53.483L116.874 56.5517Z" fill="white"/>
<path d="M128.403 59.8514H123.375V51.2402H125.228V58.3209H128.403V59.8514Z" fill="white"/>
<path d="M140.064 51.2481L137.116 59.8592H135.02L132.116 51.2481H134.111L135.925 57.2954C135.968 57.452 136.006 57.6007 136.034 57.7416C136.061 57.8826 136.084 58.0196 136.099 58.1331H136.138C136.138 58 136.181 57.8591 136.211 57.7103C136.242 57.5616 136.281 57.4129 136.327 57.2602L138.138 51.2363L140.064 51.2481Z" fill="white"/>
<path d="M139.592 59.8514L142.686 51.2402H144.879L147.922 59.8514H145.892L145.3 58.0195H142.175L141.591 59.8514H139.592ZM142.589 56.5517H144.867L143.904 53.5104C143.869 53.4129 143.839 53.3136 143.815 53.213C143.788 53.1049 143.768 52.995 143.757 52.8842H143.71C143.691 53.0016 143.668 53.1034 143.649 53.1973C143.629 53.2912 143.598 53.3852 143.567 53.483L142.589 56.5517Z" fill="white"/>
<path d="M154.134 59.8514H149.106V51.2402H150.954V58.3209H154.122L154.134 59.8514Z" fill="white"/>
<path d="M162.051 56.1369C162.051 57.4259 161.755 58.3914 161.165 59.0333C160.577 59.6792 159.687 60.0001 158.508 60.0001C157.328 60.0001 156.501 59.687 155.928 59.0607C155.356 58.4345 155.07 57.4951 155.07 56.2191V51.2481H156.926V56.2504C156.884 56.8133 157.03 57.3743 157.34 57.8434C157.498 58.0103 157.688 58.1434 157.899 58.2349C158.109 58.3264 158.335 58.3745 158.564 58.3763C158.792 58.3781 159.019 58.3336 159.231 58.2455C159.442 58.1573 159.635 58.0273 159.796 57.863C160.098 57.4095 160.241 56.8664 160.202 56.3208V51.2324H162.051V56.1369Z" fill="white"/>
<path d="M169.093 59.8514H164.038V51.2402H168.9V52.7668H165.887V54.7473H168.691V56.2777H165.887V58.3209H169.093V59.8514Z" fill="white"/>
</g>
<defs>
<clipPath id="clip0_43_384">
<rect width="171" height="60" fill="white"/>
</clipPath>
</defs>
</svg>
