<svg width="30" height="30" viewBox="0 0 30 30" fill="none" xmlns="http://www.w3.org/2000/svg">
<path d="M21.25 13.75V3.75H8.75V8.75H3.75V26.25H13.75V21.25H16.25V26.25H26.25V13.75H21.25ZM8.75 23.75H6.25V21.25H8.75V23.75ZM8.75 18.75H6.25V16.25H8.75V18.75ZM8.75 13.75H6.25V11.25H8.75V13.75ZM13.75 18.75H11.25V16.25H13.75V18.75ZM13.75 13.75H11.25V11.25H13.75V13.75ZM13.75 8.75H11.25V6.25H13.75V8.75ZM18.75 18.75H16.25V16.25H18.75V18.75ZM18.75 13.75H16.25V11.25H18.75V13.75ZM18.75 8.75H16.25V6.25H18.75V8.75ZM23.75 23.75H21.25V21.25H23.75V23.75ZM23.75 18.75H21.25V16.25H23.75V18.75Z" fill="#CAFF33"/>
</svg>
