<svg width="30" height="30" viewBox="0 0 30 30" fill="none" xmlns="http://www.w3.org/2000/svg">
<path d="M8.75 20H17.5V22.5H8.75V20ZM8.75 15H21.25V17.5H8.75V15ZM8.75 10H21.25V12.5H8.75V10ZM23.75 5H18.525C18 3.55 16.625 2.5 15 2.5C13.375 2.5 12 3.55 11.475 5H6.25C6.075 5 5.9125 5.0125 5.75 5.05C5.2625 5.15 4.825 5.4 4.4875 5.7375C4.2625 5.9625 4.075 6.2375 3.95 6.5375C3.825 6.825 3.75 7.15 3.75 7.5V25C3.75 25.3375 3.825 25.675 3.95 25.975C4.075 26.275 4.2625 26.5375 4.4875 26.775C4.825 27.1125 5.2625 27.3625 5.75 27.4625C5.9125 27.4875 6.075 27.5 6.25 27.5H23.75C25.125 27.5 26.25 26.375 26.25 25V7.5C26.25 6.125 25.125 5 23.75 5ZM15 4.6875C15.5125 4.6875 15.9375 5.1125 15.9375 5.625C15.9375 6.1375 15.5125 6.5625 15 6.5625C14.4875 6.5625 14.0625 6.1375 14.0625 5.625C14.0625 5.1125 14.4875 4.6875 15 4.6875ZM23.75 25H6.25V7.5H23.75V25Z" fill="#CAFF33"/>
</svg>
