<svg width="30" height="23" viewBox="0 0 30 23" fill="none" xmlns="http://www.w3.org/2000/svg">
<path d="M11.25 0C5.0375 0 0 5.0375 0 11.25C0 17.4625 5.0375 22.5 11.25 22.5C17.4625 22.5 22.5 17.4625 22.5 11.25C22.5 5.0375 17.4625 0 11.25 0ZM11.25 20C6.425 20 2.5 16.075 2.5 11.25C2.5 6.425 6.425 2.5 11.25 2.5C16.075 2.5 20 6.425 20 11.25C20 16.075 16.075 20 11.25 20Z" fill="#CAFF33"/>
<path d="M12.5 5H10V11.7625L14.7375 16.5125L16.5125 14.7375L12.5 10.7375V5Z" fill="#CAFF33"/>
<path d="M22.4875 0.65V3.35C25.45 4.75 27.5 7.7625 27.5 11.25C27.5 14.7375 25.45 17.75 22.4875 19.15V21.85C26.85 20.3 30 16.1375 30 11.25C30 6.3625 26.85 2.2 22.4875 0.65Z" fill="#CAFF33"/>
</svg>
